<svg width="325" height="418" viewBox="0 0 325 418" fill="none" xmlns="http://www.w3.org/2000/svg">
<path opacity="0.2" d="M304.688 168.67C304.688 107.825 255.363 58.5 194.518 58.5H0V307.431C0 368.276 49.3246 417.601 110.169 417.601H304.688V168.67Z" fill="url(#paint0_linear_2_450)"/>
<path d="M325 143.625C325 82.7805 275.675 33.4558 214.831 33.4558H20.3125V282.387C20.3125 343.232 69.6371 392.557 130.482 392.557H325V143.625Z" fill="url(#paint1_linear_2_450)"/>
<g filter="url(#filter0_b_2_450)">
<rect x="57.353" width="225.827" height="268.842" fill="white" fill-opacity="0.2"/>
<rect x="57.9038" y="0.550847" width="224.725" height="267.74" stroke="url(#paint2_linear_2_450)" stroke-width="1.10169"/>
</g>
<rect x="66.9118" y="8.96143" width="206.112" height="206.71" fill="#C4C4C4"/>
<g filter="url(#filter1_b_2_450)">
<rect x="152.344" y="177.436" width="153.539" height="182.812" fill="white" fill-opacity="0.2"/>
<rect x="152.895" y="177.987" width="152.437" height="181.711" stroke="url(#paint3_linear_2_450)" stroke-width="1.10169"/>
</g>
<rect x="158.915" y="183.41" width="140.395" height="140.993" fill="#C4C4C4"/>
<defs>
<filter id="filter0_b_2_450" x="35.3191" y="-22.0339" width="269.895" height="312.91" filterUnits="userSpaceOnUse" color-interpolation-filters="sRGB">
<feFlood flood-opacity="0" result="BackgroundImageFix"/>
<feGaussianBlur in="BackgroundImage" stdDeviation="11.0169"/>
<feComposite in2="SourceAlpha" operator="in" result="effect1_backgroundBlur_2_450"/>
<feBlend mode="normal" in="SourceGraphic" in2="effect1_backgroundBlur_2_450" result="shape"/>
</filter>
<filter id="filter1_b_2_450" x="130.31" y="155.402" width="197.606" height="226.88" filterUnits="userSpaceOnUse" color-interpolation-filters="sRGB">
<feFlood flood-opacity="0" result="BackgroundImageFix"/>
<feGaussianBlur in="BackgroundImage" stdDeviation="11.0169"/>
<feComposite in2="SourceAlpha" operator="in" result="effect1_backgroundBlur_2_450"/>
<feBlend mode="normal" in="SourceGraphic" in2="effect1_backgroundBlur_2_450" result="shape"/>
</filter>
<linearGradient id="paint0_linear_2_450" x1="313.62" y1="-62.8834" x2="79.8932" y2="548.586" gradientUnits="userSpaceOnUse">
<stop stop-color="#FFB443" stop-opacity="0"/>
<stop offset="1" stop-color="#B213DA"/>
</linearGradient>
<linearGradient id="paint1_linear_2_450" x1="333.932" y1="-87.9276" x2="100.206" y2="523.542" gradientUnits="userSpaceOnUse">
<stop stop-color="#FFB443"/>
<stop offset="1" stop-color="#B213DA"/>
</linearGradient>
<linearGradient id="paint2_linear_2_450" x1="170.267" y1="0" x2="289.782" y2="318.946" gradientUnits="userSpaceOnUse">
<stop stop-color="white" stop-opacity="0.4"/>
<stop offset="1" stop-color="white" stop-opacity="0"/>
</linearGradient>
<linearGradient id="paint3_linear_2_450" x1="229.113" y1="177.436" x2="310.393" y2="394.31" gradientUnits="userSpaceOnUse">
<stop stop-color="white" stop-opacity="0.4"/>
<stop offset="1" stop-color="white" stop-opacity="0"/>
</linearGradient>
</defs>
</svg>
