<svg width="590" height="759" viewBox="0 0 590 759" fill="none" xmlns="http://www.w3.org/2000/svg">
<path opacity="0.2" d="M36.875 306.2C36.875 195.743 126.418 106.2 236.875 106.2H590V558.107C590 668.563 500.457 758.107 390 758.107H36.875V306.2Z" fill="url(#paint0_linear_2_211)"/>
<path d="M0 260.735C0 150.278 89.5431 60.7353 200 60.7353H553.125V512.642C553.125 623.099 463.582 712.642 353.125 712.642H0V260.735Z" fill="url(#paint1_linear_2_211)"/>
<g filter="url(#filter0_b_2_211)">
<rect width="409.963" height="488.051" transform="matrix(-1 0 0 1 485.882 0)" fill="white" fill-opacity="0.2"/>
<rect x="-1" y="1" width="407.963" height="486.051" transform="matrix(-1 0 0 1 483.882 0)" stroke="url(#paint2_linear_2_211)" stroke-width="2"/>
</g>
<rect width="374.173" height="375.257" transform="matrix(-1 0 0 1 468.529 16.2684)" fill="#C4C4C4"/>
<g filter="url(#filter1_b_2_211)">
<rect width="278.732" height="331.875" transform="matrix(-1 0 0 1 313.438 322.114)" fill="white" fill-opacity="0.2"/>
<rect x="-1" y="1" width="276.732" height="329.875" transform="matrix(-1 0 0 1 311.438 322.114)" stroke="url(#paint3_linear_2_211)" stroke-width="2"/>
</g>
<rect width="254.871" height="255.956" transform="matrix(-1 0 0 1 301.507 332.96)" fill="#C4C4C4"/>
<defs>
<filter id="filter0_b_2_211" x="35.9191" y="-40" width="489.963" height="568.051" filterUnits="userSpaceOnUse" color-interpolation-filters="sRGB">
<feFlood flood-opacity="0" result="BackgroundImageFix"/>
<feGaussianBlur in="BackgroundImage" stdDeviation="20"/>
<feComposite in2="SourceAlpha" operator="in" result="effect1_backgroundBlur_2_211"/>
<feBlend mode="normal" in="SourceGraphic" in2="effect1_backgroundBlur_2_211" result="shape"/>
</filter>
<filter id="filter1_b_2_211" x="-5.29413" y="282.114" width="358.732" height="411.875" filterUnits="userSpaceOnUse" color-interpolation-filters="sRGB">
<feFlood flood-opacity="0" result="BackgroundImageFix"/>
<feGaussianBlur in="BackgroundImage" stdDeviation="20"/>
<feComposite in2="SourceAlpha" operator="in" result="effect1_backgroundBlur_2_211"/>
<feBlend mode="normal" in="SourceGraphic" in2="effect1_backgroundBlur_2_211" result="shape"/>
</filter>
<linearGradient id="paint0_linear_2_211" x1="20.6596" y1="-114.158" x2="444.963" y2="995.895" gradientUnits="userSpaceOnUse">
<stop stop-color="#FFB443" stop-opacity="0"/>
<stop offset="1" stop-color="#B213DA"/>
</linearGradient>
<linearGradient id="paint1_linear_2_211" x1="-16.2154" y1="-159.622" x2="408.088" y2="950.431" gradientUnits="userSpaceOnUse">
<stop stop-color="#FFB443"/>
<stop offset="1" stop-color="#B213DA"/>
</linearGradient>
<linearGradient id="paint2_linear_2_211" x1="204.982" y1="0" x2="421.948" y2="579.009" gradientUnits="userSpaceOnUse">
<stop stop-color="white" stop-opacity="0.4"/>
<stop offset="1" stop-color="white" stop-opacity="0"/>
</linearGradient>
<linearGradient id="paint3_linear_2_211" x1="139.366" y1="0" x2="286.921" y2="393.711" gradientUnits="userSpaceOnUse">
<stop stop-color="white" stop-opacity="0.4"/>
<stop offset="1" stop-color="white" stop-opacity="0"/>
</linearGradient>
</defs>
</svg>
